<svg width="55" height="55" viewBox="0 0 55 55" fill="none" xmlns="http://www.w3.org/2000/svg">
<g filter="url(#filter0_d)">
<path d="M50.7457 23.0332C50.7457 26.499 50.7457 29.9648 50.7457 33.1831C50.7457 36.4014 49.7706 39.1245 47.8203 41.6001C45.8701 44.0757 43.1885 45.561 40.0193 46.0562C39.2879 46.0562 38.5566 46.3037 38.069 46.3037C31.2431 46.3037 24.661 46.3037 17.8351 46.3037C12.4719 46.3037 7.84001 43.0854 5.88975 38.1343C5.40218 36.6489 4.91461 35.1636 4.91461 33.6782C4.91461 26.7466 4.91461 19.8149 4.91461 12.8833C4.91461 7.43701 8.08379 2.7334 12.9594 1.00049C14.4221 0.505371 16.1286 0.0102539 17.5913 0.0102539C24.4172 0.0102539 31.2431 0.0102539 38.069 0.0102539C42.7009 0.0102539 46.3576 2.23828 48.7955 6.19922C50.2582 8.17969 50.7457 10.4077 50.7457 12.8833C50.7457 16.3491 50.7457 19.8149 50.7457 23.0332ZM27.8302 10.1602C20.7605 10.1602 15.1535 15.854 15.1535 23.0332C15.1535 30.2124 20.7605 35.9062 27.8302 35.9062C34.8999 35.9062 40.5069 30.2124 40.5069 23.0332C40.5069 15.854 34.8999 10.1602 27.8302 10.1602ZM45.6263 7.68457C45.6263 6.19922 44.4074 5.20898 43.1885 5.20898C41.7258 5.20898 40.7506 6.44678 40.7506 7.68457C40.7506 9.16992 41.9696 10.1602 43.1885 10.1602C44.6512 10.1602 45.6263 8.92236 45.6263 7.68457Z" fill="#FFF2E9"/>
<path d="M20.2729 23.0333C20.2729 18.8248 23.6859 15.3589 27.8302 15.3589C31.9745 15.3589 35.3874 18.8248 35.3874 23.0333C35.3874 27.2419 31.9745 30.7077 27.8302 30.7077C23.6859 30.9553 20.2729 27.4894 20.2729 23.0333Z" fill="#FFF2E9"/>
</g>
<defs>
<filter id="filter0_d" x="0.914612" y="0.0102539" width="53.8311" height="54.2935" filterUnits="userSpaceOnUse" color-interpolation-filters="sRGB">
<feFlood flood-opacity="0" result="BackgroundImageFix"/>
<feColorMatrix in="SourceAlpha" type="matrix" values="0 0 0 0 0 0 0 0 0 0 0 0 0 0 0 0 0 0 127 0"/>
<feOffset dy="4"/>
<feGaussianBlur stdDeviation="2"/>
<feColorMatrix type="matrix" values="0 0 0 0 0 0 0 0 0 0 0 0 0 0 0 0 0 0 0.5 0"/>
<feBlend mode="normal" in2="BackgroundImageFix" result="effect1_dropShadow"/>
<feBlend mode="normal" in="SourceGraphic" in2="effect1_dropShadow" result="shape"/>
</filter>
</defs>
</svg>
