<svg width="75" height="55" viewBox="0 0 75 55" fill="none" xmlns="http://www.w3.org/2000/svg">
<g filter="url(#filter0_d)">
<path d="M70.6999 23.3981C70.6999 25.327 70.6999 27.497 70.6999 29.4259C70.4561 32.5603 70.2123 35.4537 69.7248 38.5881C69.2372 40.517 68.2621 42.2048 66.7994 43.4104C65.3367 44.6159 63.3864 45.0982 61.4362 45.3393C59.7297 45.5804 58.267 45.5804 56.5605 45.8215C55.5854 45.8215 54.3665 46.0626 53.3914 46.0626C49.4908 46.0626 45.5903 46.3037 41.6898 46.3037C39.0082 46.3037 36.3266 46.3037 33.645 46.3037C31.2072 46.3037 28.5256 46.3037 26.0877 46.0626C22.9186 45.8215 19.9932 45.8215 16.824 45.5804C15.3613 45.5804 13.8986 45.3393 12.6797 45.0982C11.217 44.857 9.99812 44.3748 8.7792 43.4104C6.82895 41.9637 5.85382 39.7937 5.61004 37.6237C5.12247 34.9715 4.87869 32.5603 4.87869 29.9081C4.87869 27.2559 4.63491 24.8448 4.63491 22.1925C3.90356 20.5048 4.14734 18.5759 4.14734 16.647C4.39112 14.7181 4.39112 13.0303 4.63491 11.1014C4.87869 9.41361 5.12247 7.72583 5.85382 6.03805C7.07273 3.62693 9.02299 1.93915 11.7046 1.45692C13.1673 1.21581 14.63 0.974701 16.3365 0.974701C19.2618 0.733589 22.431 0.733589 25.3564 0.492478C27.7942 0.492478 30.232 0.251366 32.6699 0.251366C35.1077 0.251366 37.5455 0.0102539 39.9833 0.0102539C42.6649 0.0102539 45.5903 0.0102539 48.2719 0.251366C50.2222 0.251366 52.4162 0.492478 54.3665 0.492478C55.8292 0.492478 57.5357 0.492477 58.9983 0.733589C60.7048 0.974701 62.6551 0.974701 64.3616 1.69804C67.0432 2.66248 68.7496 4.59138 69.481 7.24361C70.2123 10.3781 70.4561 13.5125 70.6999 16.8881C70.6999 19.0581 70.6999 21.2281 70.6999 23.3981ZM30.7196 23.157C30.7196 26.0503 30.7196 28.9437 30.7196 31.837C30.7196 32.0781 30.7196 32.5603 30.9634 32.8015C31.451 32.8015 31.6947 32.5603 32.1823 32.5603C33.1574 31.837 34.3763 31.3548 35.3515 30.6314C37.0579 29.667 38.7644 28.7026 40.2271 27.7381C41.6898 27.0148 42.9087 26.2914 44.3714 25.327C45.3465 24.8448 46.5655 24.1214 47.5406 23.3981C48.0281 23.157 48.0281 22.6748 47.5406 22.4336C47.053 22.1925 46.8092 21.9514 46.3217 21.7103C43.8838 20.2636 41.2022 18.817 38.7644 17.3703C36.5704 16.1647 34.1326 14.7181 31.9385 13.5125C30.9634 13.2714 30.7196 13.5125 30.7196 14.2358C30.7196 17.1292 30.7196 20.2636 30.7196 23.157Z" fill="#FFF2E9"/>
</g>
<defs>
<filter id="filter0_d" x="0.108337" y="0.0102539" width="74.5916" height="54.2935" filterUnits="userSpaceOnUse" color-interpolation-filters="sRGB">
<feFlood flood-opacity="0" result="BackgroundImageFix"/>
<feColorMatrix in="SourceAlpha" type="matrix" values="0 0 0 0 0 0 0 0 0 0 0 0 0 0 0 0 0 0 127 0"/>
<feOffset dy="4"/>
<feGaussianBlur stdDeviation="2"/>
<feColorMatrix type="matrix" values="0 0 0 0 0 0 0 0 0 0 0 0 0 0 0 0 0 0 0.5 0"/>
<feBlend mode="normal" in2="BackgroundImageFix" result="effect1_dropShadow"/>
<feBlend mode="normal" in="SourceGraphic" in2="effect1_dropShadow" result="shape"/>
</filter>
</defs>
</svg>
