<svg width="55" height="55" viewBox="0 0 55 55" fill="none" xmlns="http://www.w3.org/2000/svg">
<g filter="url(#filter0_d)">
<path d="M4.136 23.1153C4.136 17.5415 4.136 11.9677 4.136 6.40583C4.136 3.33309 6.10048 0.855851 9.10708 0.165082C9.53831 0.069803 9.99349 0.0221637 10.4367 0.0221637C21.7564 0.0102539 33.0881 0.0102539 44.4078 0.0102539C47.8216 0.0102539 50.6606 2.84479 50.6845 6.29864C50.6965 7.98983 50.7085 9.69293 50.7085 11.3841C50.7204 19.6257 50.7324 27.8792 50.7324 36.1208C50.7324 37.5143 50.7324 38.9196 50.6965 40.3131C50.6725 41.5517 50.2413 42.6593 49.5226 43.6597C48.205 45.5058 46.1327 46.3037 44.264 46.3037C33.1719 46.2799 22.0918 46.2799 10.9997 46.2918C9.80184 46.2918 8.6519 46.1608 7.58581 45.5891C5.33385 44.3743 4.136 42.4807 4.12402 39.932C4.11204 34.3224 4.136 28.7129 4.136 23.1153ZM43.9885 10.5504C44.0005 9.06171 43.2219 8.49004 42.024 8.83543C41.8444 8.88307 41.6647 8.96644 41.497 9.0379C36.454 10.9316 31.4111 12.8252 26.3801 14.7189C22.2475 16.2791 18.1029 17.8273 13.9704 19.3875C12.521 19.9354 11.0596 20.4594 9.61018 21.0311C9.31072 21.1502 8.99928 21.3526 8.79564 21.6028C8.19672 22.3293 8.54409 23.282 9.51435 23.5798C12.0179 24.3658 14.5333 25.14 17.0488 25.9141C17.3363 25.9975 17.4681 26.1523 17.5519 26.4143C18.2826 28.6772 19.0253 30.94 19.768 33.191C20.0794 34.1319 20.3789 35.0728 20.7622 35.9898C21.0856 36.7759 21.8762 36.9664 22.5949 36.5138C22.8464 36.359 23.086 36.1685 23.3016 35.966C24.5833 34.7512 25.865 33.5245 27.1347 32.2978C27.3144 32.131 27.4222 32.1072 27.6259 32.262C30.2492 34.2033 32.8725 36.1327 35.5197 38.0502C35.8192 38.2646 36.1905 38.4194 36.5379 38.5147C37.3524 38.7291 37.9633 38.4313 38.3466 37.681C38.4904 37.3952 38.5982 37.0736 38.6581 36.752C39.3409 33.4292 40.0117 30.1183 40.6944 26.7954C41.6767 21.9958 42.6469 17.1842 43.6292 12.3846C43.7609 11.6938 43.8927 11.003 43.9885 10.5504Z" fill="#FFF2E9"/>
<path d="M21.7451 34.7041C21.4097 33.6799 21.0743 32.6556 20.7389 31.6314C20.104 29.6781 19.4572 27.7368 18.8103 25.7836C18.7385 25.5573 18.7624 25.4382 18.978 25.3072C23.5419 22.4727 28.0937 19.6262 32.6575 16.7916C34.0111 15.946 35.3527 15.1004 36.7063 14.2667C36.8859 14.1596 37.0656 14.0405 37.2573 13.9928C37.389 13.9571 37.6166 13.9809 37.6765 14.0762C37.7604 14.1834 37.7484 14.3978 37.7125 14.5407C37.6765 14.6598 37.5567 14.767 37.4489 14.8503C34.3345 17.6372 31.2081 20.4242 28.0937 23.223C26.3329 24.7951 24.572 26.3791 22.7992 27.9512C22.6195 28.106 22.5476 28.2847 22.5237 28.511C22.2961 30.4999 22.0685 32.4889 21.8529 34.4778C21.8409 34.5493 21.8289 34.6326 21.805 34.7041C21.781 34.6922 21.769 34.6922 21.7451 34.7041Z" fill="#FFF2E9"/>
</g>
<defs>
<filter id="filter0_d" x="0.120667" y="0.0102539" width="54.6118" height="54.2935" filterUnits="userSpaceOnUse" color-interpolation-filters="sRGB">
<feFlood flood-opacity="0" result="BackgroundImageFix"/>
<feColorMatrix in="SourceAlpha" type="matrix" values="0 0 0 0 0 0 0 0 0 0 0 0 0 0 0 0 0 0 127 0"/>
<feOffset dy="4"/>
<feGaussianBlur stdDeviation="2"/>
<feColorMatrix type="matrix" values="0 0 0 0 0 0 0 0 0 0 0 0 0 0 0 0 0 0 0.5 0"/>
<feBlend mode="normal" in2="BackgroundImageFix" result="effect1_dropShadow"/>
<feBlend mode="normal" in="SourceGraphic" in2="effect1_dropShadow" result="shape"/>
</filter>
</defs>
</svg>
